<svg width="28" height="10" viewBox="0 0 28 10" fill="none" xmlns="http://www.w3.org/2000/svg">
<path d="M17 5H26M26 5L23 8M26 5L23 2" stroke="#7E7E7E" stroke-width="1.5"/>
<path d="M0 5L9 5" stroke="#07A8D7" stroke-width="1.5"/>
<mask id="path-3-inside-1_1802_38759" fill="white">
<path d="M13 10C11.6739 10 10.4021 9.47322 9.46447 8.53553C8.52678 7.59785 8 6.32608 8 5C8 3.67392 8.52678 2.40215 9.46447 1.46447C10.4021 0.526785 11.6739 9.37861e-07 13 9.53674e-07V1.71782C12.1295 1.71782 11.2947 2.06362 10.6791 2.67915C10.0636 3.29468 9.71782 4.12951 9.71782 5C9.71782 5.87049 10.0636 6.70532 10.6791 7.32085C11.2947 7.93638 12.1295 8.28218 13 8.28218V10Z"/>
</mask>
<path d="M13 10C11.6739 10 10.4021 9.47322 9.46447 8.53553C8.52678 7.59785 8 6.32608 8 5C8 3.67392 8.52678 2.40215 9.46447 1.46447C10.4021 0.526785 11.6739 9.37861e-07 13 9.53674e-07V1.71782C12.1295 1.71782 11.2947 2.06362 10.6791 2.67915C10.0636 3.29468 9.71782 4.12951 9.71782 5C9.71782 5.87049 10.0636 6.70532 10.6791 7.32085C11.2947 7.93638 12.1295 8.28218 13 8.28218V10Z" fill="white" stroke="#07A8D7" stroke-width="3" mask="url(#path-3-inside-1_1802_38759)"/>
<mask id="path-4-inside-2_1802_38759" fill="white">
<path d="M13 5.1656e-07C14.3261 6.3249e-07 15.5979 0.526785 16.5355 1.46447C17.4732 2.40215 18 3.67392 18 5C18 6.32608 17.4732 7.59785 16.5355 8.53553C15.5979 9.47322 14.3261 10 13 10L13 8.28218C13.8705 8.28218 14.7053 7.93638 15.3209 7.32085C15.9364 6.70532 16.2822 5.87049 16.2822 5C16.2822 4.12951 15.9364 3.29468 15.3209 2.67915C14.7053 2.06362 13.8705 1.71782 13 1.71782L13 5.1656e-07Z"/>
</mask>
<path d="M13 5.1656e-07C14.3261 6.3249e-07 15.5979 0.526785 16.5355 1.46447C17.4732 2.40215 18 3.67392 18 5C18 6.32608 17.4732 7.59785 16.5355 8.53553C15.5979 9.47322 14.3261 10 13 10L13 8.28218C13.8705 8.28218 14.7053 7.93638 15.3209 7.32085C15.9364 6.70532 16.2822 5.87049 16.2822 5C16.2822 4.12951 15.9364 3.29468 15.3209 2.67915C14.7053 2.06362 13.8705 1.71782 13 1.71782L13 5.1656e-07Z" fill="white" stroke="#7E7E7E" stroke-width="3" mask="url(#path-4-inside-2_1802_38759)"/>
</svg>
