<svg width="30" height="16" viewBox="0 0 30 16" fill="none" xmlns="http://www.w3.org/2000/svg">
<path d="M9.12099 10.2611C9.12099 12.4997 7.30622 14.3145 5.06758 14.3145C2.82894 14.3145 1.01416 12.4997 1.01416 10.2611C1.01416 9.61265 1.25958 8.79971 1.6913 7.89701C2.11675 7.00741 2.69151 6.09501 3.27816 5.26567C3.86314 4.43871 4.44974 3.70862 4.89081 3.18467C4.95281 3.11102 5.01188 3.04151 5.06758 2.97647C5.12328 3.04151 5.18234 3.11102 5.24435 3.18467C5.68541 3.70862 6.27202 4.43871 6.85699 5.26567C7.44365 6.09501 8.01841 7.00741 8.44386 7.89701C8.87558 8.79971 9.12099 9.61265 9.12099 10.2611Z" stroke="#07A8D7" stroke-width="1.5"/>
<path d="M29.25 10.0851C29.25 11.8127 27.8495 13.2133 26.1218 13.2133C24.3942 13.2133 22.9937 11.8127 22.9937 10.0851C22.9937 9.59095 23.1826 8.9415 23.5297 8.19484C23.8702 7.46249 24.3312 6.70255 24.8034 6.00661C25.2739 5.31304 25.746 4.69703 26.1012 4.25381C26.1081 4.24515 26.115 4.23657 26.1218 4.22805C26.1287 4.23657 26.1355 4.24515 26.1425 4.25381C26.4976 4.69703 26.9697 5.31304 27.4403 6.00661C27.9125 6.70255 28.3735 7.46249 28.7139 8.19484C29.061 8.9415 29.25 9.59095 29.25 10.0851Z" stroke="#07A8D7" stroke-width="1.5"/>
<path d="M16.1214 7.1567L18.9499 4.32828M18.9499 4.32828L16.1214 1.49985M18.9499 4.32828H12.2933" stroke="#7E7E7E" stroke-width="1.5"/>
<path d="M15.1217 9.49979L12.2933 12.3282M12.2933 12.3282L15.1217 15.1566M12.2933 12.3282L18.9499 12.3282" stroke="#7E7E7E" stroke-width="1.5"/>
</svg>
