<svg width="25" height="14" viewBox="0 0 25 14" fill="none" xmlns="http://www.w3.org/2000/svg">
<line x1="12.621" y1="3.27835e-08" x2="12.621" y2="14" stroke="#7E7E7E" stroke-width="1.5"/>
<path d="M24.0063 9.02919C24.0063 10.7568 22.6058 12.1574 20.8782 12.1574C19.1505 12.1574 17.75 10.7568 17.75 9.02919C17.75 8.53505 17.939 7.8856 18.2861 7.13893C18.6265 6.40658 19.0875 5.64664 19.5597 4.9507C20.0303 4.25713 20.5024 3.64112 20.8575 3.1979C20.8644 3.18925 20.8713 3.18066 20.8782 3.17214C20.885 3.18066 20.8919 3.18925 20.8988 3.1979C21.2539 3.64112 21.726 4.25713 22.1966 4.9507C22.6688 5.64664 23.1298 6.40658 23.4703 7.13893C23.8174 7.8856 24.0063 8.53505 24.0063 9.02919Z" stroke="#07A8D7" stroke-width="1.5"/>
<path d="M7.00633 9.02919C7.00633 10.7568 5.6058 12.1574 3.87816 12.1574C2.15053 12.1574 0.75 10.7568 0.75 9.02919C0.75 8.53505 0.938968 7.8856 1.28607 7.13893C1.62652 6.40658 2.08753 5.64664 2.55971 4.9507C3.03029 4.25713 3.50239 3.64112 3.8575 3.1979C3.86444 3.18925 3.87132 3.18066 3.87816 3.17214C3.885 3.18066 3.89189 3.18925 3.89882 3.1979C4.25394 3.64112 4.72604 4.25713 5.19661 4.9507C5.6688 5.64664 6.12981 6.40658 6.47026 7.13893C6.81736 7.8856 7.00633 8.53505 7.00633 9.02919Z" stroke="#7E7E7E" stroke-width="1.5"/>
</svg>
