<svg width="20" height="11" viewBox="0 0 20 11" fill="none" xmlns="http://www.w3.org/2000/svg">
<path d="M10 3L10.3046 2.31464L10 3ZM8.34297 2.26354L8.64757 1.57818L8.34297 2.26354ZM2.65703 2.26354L2.96164 2.9489L2.65703 2.26354ZM18.6954 2.31464L17.0384 3.0511L17.6476 4.42182L19.3046 3.68536L18.6954 2.31464ZM11.9616 3.0511L10.3046 2.31464L9.6954 3.68536L11.3524 4.42182L11.9616 3.0511ZM10.3046 2.31464L8.64757 1.57818L8.03837 2.9489L9.6954 3.68536L10.3046 2.31464ZM2.35243 1.57818L0.695397 2.31464L1.3046 3.68536L2.96164 2.9489L2.35243 1.57818ZM8.64757 1.57818C6.64369 0.687569 4.35631 0.687568 2.35243 1.57818L2.96164 2.9489C4.57767 2.23066 6.42233 2.23066 8.03837 2.9489L8.64757 1.57818ZM17.0384 3.0511C15.4223 3.76934 13.5777 3.76934 11.9616 3.0511L11.3524 4.42182C13.3563 5.31243 15.6437 5.31243 17.6476 4.42182L17.0384 3.0511Z" fill="#07A8D7"/>
<path d="M10 8L10.3046 7.31464L10 8ZM8.34297 7.26354L8.64757 6.57818L8.34297 7.26354ZM2.65703 7.26354L2.96164 7.9489L2.65703 7.26354ZM18.6954 7.31464L17.0384 8.0511L17.6476 9.42182L19.3046 8.68536L18.6954 7.31464ZM11.9616 8.0511L10.3046 7.31464L9.6954 8.68536L11.3524 9.42182L11.9616 8.0511ZM10.3046 7.31464L8.64757 6.57818L8.03837 7.9489L9.6954 8.68536L10.3046 7.31464ZM2.35243 6.57818L0.695397 7.31464L1.3046 8.68536L2.96164 7.9489L2.35243 6.57818ZM8.64757 6.57818C6.64369 5.68757 4.35631 5.68757 2.35243 6.57818L2.96164 7.9489C4.57767 7.23066 6.42233 7.23066 8.03837 7.9489L8.64757 6.57818ZM17.0384 8.0511C15.4223 8.76934 13.5777 8.76934 11.9616 8.0511L11.3524 9.42182C13.3563 10.3124 15.6437 10.3124 17.6476 9.42182L17.0384 8.0511Z" fill="#07A8D7"/>
</svg>
