<svg width="30" height="10" viewBox="0 0 30 10" fill="none" xmlns="http://www.w3.org/2000/svg">
<path d="M19 5H28M28 5L25 8M28 5L25 2" stroke="#7E7E7E" stroke-width="1.5"/>
<path d="M0 5L9 5" stroke="#07A8D7" stroke-width="1.5"/>
<mask id="path-3-inside-1_1802_38763" fill="white">
<path d="M13 10C11.6739 10 10.4021 9.47322 9.46447 8.53553C8.52678 7.59785 8 6.32608 8 5C8 3.67392 8.52678 2.40215 9.46447 1.46447C10.4021 0.526784 11.6739 -1.58134e-08 13 0V1.71782C12.1295 1.71782 11.2947 2.06362 10.6791 2.67915C10.0636 3.29468 9.71782 4.12951 9.71782 5C9.71782 5.87049 10.0636 6.70532 10.6791 7.32085C11.2947 7.93638 12.1295 8.28218 13 8.28218V10Z"/>
</mask>
<path d="M13 10C11.6739 10 10.4021 9.47322 9.46447 8.53553C8.52678 7.59785 8 6.32608 8 5C8 3.67392 8.52678 2.40215 9.46447 1.46447C10.4021 0.526784 11.6739 -1.58134e-08 13 0V1.71782C12.1295 1.71782 11.2947 2.06362 10.6791 2.67915C10.0636 3.29468 9.71782 4.12951 9.71782 5C9.71782 5.87049 10.0636 6.70532 10.6791 7.32085C11.2947 7.93638 12.1295 8.28218 13 8.28218V10Z" fill="white" stroke="#07A8D7" stroke-width="3" mask="url(#path-3-inside-1_1802_38763)"/>
<mask id="path-4-inside-2_1802_38763" fill="white">
<path d="M15 -4.37114e-07C16.3261 -3.21184e-07 17.5979 0.526784 18.5355 1.46447C19.4732 2.40215 20 3.67392 20 5C20 6.32608 19.4732 7.59785 18.5355 8.53553C17.5979 9.47322 16.3261 10 15 10L15 8.28218C15.8705 8.28218 16.7053 7.93638 17.3209 7.32085C17.9364 6.70532 18.2822 5.87049 18.2822 5C18.2822 4.12951 17.9364 3.29468 17.3209 2.67915C16.7053 2.06362 15.8705 1.71782 15 1.71782L15 -4.37114e-07Z"/>
</mask>
<path d="M15 -4.37114e-07C16.3261 -3.21184e-07 17.5979 0.526784 18.5355 1.46447C19.4732 2.40215 20 3.67392 20 5C20 6.32608 19.4732 7.59785 18.5355 8.53553C17.5979 9.47322 16.3261 10 15 10L15 8.28218C15.8705 8.28218 16.7053 7.93638 17.3209 7.32085C17.9364 6.70532 18.2822 5.87049 18.2822 5C18.2822 4.12951 17.9364 3.29468 17.3209 2.67915C16.7053 2.06362 15.8705 1.71782 15 1.71782L15 -4.37114e-07Z" fill="white" stroke="#7E7E7E" stroke-width="3" mask="url(#path-4-inside-2_1802_38763)"/>
</svg>
