<svg width="16" height="20" viewBox="0 0 16 20" fill="none" xmlns="http://www.w3.org/2000/svg">
<path d="M3 10L2.31464 9.6954L3 10ZM2.26354 11.657L1.57818 11.3524L2.26354 11.657ZM2.26354 17.343L2.9489 17.0384L2.26354 17.343ZM2.31464 1.3046L3.0511 2.96163L4.42182 2.35243L3.68536 0.695396L2.31464 1.3046ZM3.0511 8.03836L2.31464 9.6954L3.68536 10.3046L4.42182 8.64757L3.0511 8.03836ZM2.31464 9.6954L1.57818 11.3524L2.9489 11.9616L3.68536 10.3046L2.31464 9.6954ZM1.57818 17.6476L2.31464 19.3046L3.68536 18.6954L2.9489 17.0384L1.57818 17.6476ZM1.57818 11.3524C0.68757 13.3563 0.687569 15.6437 1.57818 17.6476L2.9489 17.0384C2.23066 15.4223 2.23066 13.5777 2.9489 11.9616L1.57818 11.3524ZM3.0511 2.96163C3.76934 4.57767 3.76934 6.42233 3.0511 8.03836L4.42182 8.64757C5.31243 6.64369 5.31243 4.35631 4.42182 2.35243L3.0511 2.96163Z" fill="#E53B10"/>
<path d="M8 10L7.31464 9.6954L8 10ZM7.26354 11.657L6.57818 11.3524L7.26354 11.657ZM7.26354 17.343L7.9489 17.0384L7.26354 17.343ZM7.31464 1.3046L8.0511 2.96163L9.42182 2.35243L8.68536 0.695396L7.31464 1.3046ZM8.0511 8.03836L7.31464 9.6954L8.68536 10.3046L9.42182 8.64757L8.0511 8.03836ZM7.31464 9.6954L6.57818 11.3524L7.9489 11.9616L8.68536 10.3046L7.31464 9.6954ZM6.57818 17.6476L7.31464 19.3046L8.68536 18.6954L7.9489 17.0384L6.57818 17.6476ZM6.57818 11.3524C5.68757 13.3563 5.68757 15.6437 6.57818 17.6476L7.9489 17.0384C7.23066 15.4223 7.23066 13.5777 7.9489 11.9616L6.57818 11.3524ZM8.0511 2.96163C8.76934 4.57767 8.76934 6.42233 8.0511 8.03836L9.42182 8.64757C10.3124 6.64369 10.3124 4.35631 9.42182 2.35243L8.0511 2.96163Z" fill="#E53B10"/>
<path d="M13 10L12.3146 9.6954L13 10ZM12.2635 11.657L11.5782 11.3524L12.2635 11.657ZM12.2635 17.343L12.9489 17.0384L12.2635 17.343ZM12.3146 1.3046L13.0511 2.96163L14.4218 2.35243L13.6854 0.695396L12.3146 1.3046ZM13.0511 8.03836L12.3146 9.6954L13.6854 10.3046L14.4218 8.64757L13.0511 8.03836ZM12.3146 9.6954L11.5782 11.3524L12.9489 11.9616L13.6854 10.3046L12.3146 9.6954ZM11.5782 17.6476L12.3146 19.3046L13.6854 18.6954L12.9489 17.0384L11.5782 17.6476ZM11.5782 11.3524C10.6876 13.3563 10.6876 15.6437 11.5782 17.6476L12.9489 17.0384C12.2307 15.4223 12.2307 13.5777 12.9489 11.9616L11.5782 11.3524ZM13.0511 2.96163C13.7693 4.57767 13.7693 6.42233 13.0511 8.03836L14.4218 8.64757C15.3124 6.64369 15.3124 4.35631 14.4218 2.35243L13.0511 2.96163Z" fill="#E53B10"/>
</svg>
