<svg width="40" height="40" viewBox="0 0 40 40" fill="none" xmlns="http://www.w3.org/2000/svg">
<g clip-path="url(#clip0_185_8429)">
<path d="M0 20C0 8.95431 8.95431 0 20 0C31.0457 0 40 8.95431 40 20C40 31.0457 31.0457 40 20 40C8.95431 40 0 31.0457 0 20Z" fill="white"/>
<path d="M42 25V15H28H11.6H-6V25H11.6H28H42Z" fill="#E8E9E9"/>
<path d="M17.25 25.25V14.75H11.75V25.25H17.25Z" fill="white" stroke="#07A8D7" stroke-width="1.5"/>
<rect x="16.3496" y="12.75" width="11.3" height="14.5" fill="white" stroke="#07A8D7" stroke-width="1.5"/>
</g>
<path d="M20 38.5C9.78273 38.5 1.5 30.2173 1.5 20H-1.5C-1.5 31.8741 8.12588 41.5 20 41.5V38.5ZM38.5 20C38.5 30.2173 30.2173 38.5 20 38.5V41.5C31.8741 41.5 41.5 31.8741 41.5 20H38.5ZM20 1.5C30.2173 1.5 38.5 9.78273 38.5 20H41.5C41.5 8.12588 31.8741 -1.5 20 -1.5V1.5ZM20 -1.5C8.12588 -1.5 -1.5 8.12588 -1.5 20H1.5C1.5 9.78273 9.78273 1.5 20 1.5V-1.5Z" fill="#E8E9E9"/>
<defs>
<clipPath id="clip0_185_8429">
<path d="M0 20C0 8.95431 8.95431 0 20 0C31.0457 0 40 8.95431 40 20C40 31.0457 31.0457 40 20 40C8.95431 40 0 31.0457 0 20Z" fill="white"/>
</clipPath>
</defs>
</svg>
